<svg viewBox="0 0 751 471" fill="none" xmlns="http://www.w3.org/2000/svg"><g clip-path="url(#clip0)" fill="#12355B"><path d="M105.12 161.98c0-.907-.153-1.567-.46-1.98-.307-.413-.74-.62-1.3-.62-.333 0-.62.073-.86.22-.24.133-.453.333-.64.6-.2.253-.38.567-.54.94-.173.373-.34.8-.5 1.28a21.6 21.6 0 01-.56 1.4c-.213.44-.473.833-.78 1.18a3.767 3.767 0 01-1.1.82c-.427.2-.94.3-1.54.3-1.253 0-2.233-.433-2.94-1.3-.72-.867-1.08-2.047-1.08-3.54 0-.867.1-1.633.3-2.3.187-.68.393-1.213.62-1.6l2.04.78a5.937 5.937 0 00-.58 1.5 6.82 6.82 0 00-.2 1.66c0 .68.14 1.213.42 1.6.28.373.673.56 1.18.56.307 0 .573-.06.8-.18.213-.133.407-.313.58-.54.173-.24.333-.513.48-.82.147-.32.287-.667.42-1.04.24-.653.487-1.233.74-1.74.24-.52.533-.953.88-1.3.333-.36.733-.633 1.2-.82.453-.187 1.007-.28 1.66-.28 1.253 0 2.227.447 2.92 1.34.68.88 1.02 2.173 1.02 3.88 0 .573-.04 1.1-.12 1.58a9.473 9.473 0 01-.26 1.26c-.107.36-.213.673-.32.94-.12.267-.227.48-.32.64l-2.06-.74c.2-.36.4-.847.6-1.46.2-.613.3-1.353.3-2.22zm-3.3-6.741c-.92 0-1.727-.133-2.42-.4-.693-.28-1.267-.646-1.72-1.1a4.327 4.327 0 01-1.04-1.56 4.709 4.709 0 01-.36-1.8c0-1.44.447-2.56 1.34-3.36.893-.813 2.227-1.22 4-1.22.133 0 .287.007.46.02.16 0 .307.007.44.02v6.9c.84-.066 1.493-.36 1.96-.88.453-.533.68-1.3.68-2.3 0-.586-.053-1.12-.16-1.6-.107-.493-.22-.88-.34-1.16l1.98-.32c.067.134.14.32.22.56.067.227.127.494.18.8a9.246 9.246 0 01.22 2.02c0 .92-.133 1.72-.4 2.4-.28.68-.66 1.24-1.14 1.68a4.777 4.777 0 01-1.72.98 7.099 7.099 0 01-2.18.32zm-1.08-7.02c-.333 0-.647.047-.94.14a2.11 2.11 0 00-.78.42c-.227.174-.4.394-.52.66-.133.254-.2.56-.2.92 0 .374.073.7.22.98.133.28.313.52.54.72.227.187.487.334.78.44.293.107.593.18.9.22v-4.5zm-6.96-4.866l-.4-2.42h3.16v-3.72h2.02v3.72h4.26c.84 0 1.44-.133 1.8-.4.36-.266.54-.72.54-1.36 0-.44-.047-.826-.14-1.16a7.658 7.658 0 00-.26-.82l1.92-.4c.12.28.24.647.36 1.1.133.454.2.987.2 1.6 0 .747-.1 1.374-.3 1.88-.2.494-.487.887-.86 1.18-.387.294-.847.5-1.38.62-.547.12-1.167.18-1.86.18h-9.06zm0-8.359l-.4-2.42h3.16v-3.72h2.02v3.72h4.26c.84 0 1.44-.133 1.8-.4.36-.267.54-.72.54-1.36 0-.44-.047-.827-.14-1.16a7.584 7.584 0 00-.26-.82l1.92-.4c.12.28.24.647.36 1.1.133.453.2.987.2 1.6 0 .747-.1 1.373-.3 1.88-.2.493-.487.887-.86 1.18-.387.293-.847.5-1.38.62-.547.12-1.167.18-1.86.18h-9.06zM107 124.075v2.42H96.54v-2.42H107zm-13.52-.26c.453 0 .813.146 1.08.44.267.293.4.64.4 1.04 0 .413-.133.766-.4 1.06-.267.293-.627.44-1.08.44-.467 0-.833-.147-1.1-.44a1.522 1.522 0 01-.4-1.06c0-.4.133-.747.4-1.04.267-.294.633-.44 1.1-.44zm3.4-2.828a16.172 16.172 0 01-.38-1.82c-.12-.746-.18-1.573-.18-2.48 0-.853.12-1.566.36-2.14.227-.573.553-1.026.98-1.36.413-.346.92-.586 1.52-.72a8.028 8.028 0 011.94-.22H107v2.42h-5.5c-.56 0-1.033.04-1.42.12-.4.067-.72.187-.96.36a1.31 1.31 0 00-.54.68c-.12.28-.18.627-.18 1.04 0 .307.02.627.06.96.04.334.073.58.1.74H107v2.42H96.88zm4.62-13.599c1.027 0 1.78-.22 2.26-.66.467-.453.7-1.033.7-1.74 0-.387-.053-.747-.16-1.08a3.085 3.085 0 00-.38-.84H98.5c-.04.173-.073.387-.1.64a6.33 6.33 0 00-.06.96c0 .88.293 1.553.88 2.02.573.467 1.333.7 2.28.7zm4.44-6.74c1.667 0 2.887.427 3.66 1.28.773.84 1.16 2.133 1.16 3.88 0 .64-.053 1.267-.16 1.88a10.56 10.56 0 01-.42 1.64l-2.06-.44c.173-.413.313-.88.42-1.4.107-.533.16-1.107.16-1.72 0-.973-.2-1.667-.6-2.08-.4-.413-.993-.62-1.78-.62h-.4c.12.24.24.56.36.96.12.387.18.833.18 1.34 0 .667-.107 1.28-.32 1.84a3.946 3.946 0 01-.94 1.42c-.413.387-.927.693-1.54.92-.627.213-1.347.32-2.16.32-.76 0-1.46-.113-2.1-.34a4.68 4.68 0 01-1.64-1.02c-.453-.453-.807-1-1.06-1.64-.253-.64-.38-1.367-.38-2.18 0-.787.06-1.533.18-2.24.12-.707.247-1.307.38-1.8h9.06zm-.68-5.699c0-.64-.073-1.106-.22-1.4-.16-.293-.427-.44-.8-.44-.347 0-.633.16-.86.48-.227.307-.473.82-.74 1.54-.16.44-.327.847-.5 1.22-.187.36-.4.674-.64.94-.24.267-.527.48-.86.64-.347.147-.767.22-1.26.22-.96 0-1.713-.353-2.26-1.06-.56-.706-.84-1.666-.84-2.88 0-.613.06-1.2.18-1.76.107-.56.213-.98.32-1.26l1.96.44c-.12.267-.227.607-.32 1.02-.107.414-.16.894-.16 1.44 0 .494.087.894.26 1.2a.8.8 0 00.76.46c.173 0 .327-.026.46-.08a1.19 1.19 0 00.38-.32c.107-.146.22-.34.34-.58.107-.24.22-.533.34-.88.213-.573.427-1.06.64-1.46.2-.4.433-.726.7-.98.253-.266.547-.46.88-.58.333-.12.733-.18 1.2-.18 1 0 1.76.374 2.28 1.12.507.734.76 1.787.76 3.16 0 .92-.08 1.66-.24 2.22-.147.56-.267.954-.36 1.18l-2.02-.42c.147-.36.287-.786.42-1.28.133-.506.2-1.08.2-1.72zM168.14 155.68h2.18v4.26H182v2.54h-11.68v4.26h-2.18v-11.06zm8.62-10.168c.827 0 1.58.12 2.26.36.68.24 1.26.58 1.74 1.02.48.44.853.973 1.12 1.6.267.613.4 1.293.4 2.04 0 .746-.133 1.426-.4 2.04a4.617 4.617 0 01-1.12 1.58c-.48.44-1.06.786-1.74 1.04-.68.24-1.433.36-2.26.36-.827 0-1.573-.12-2.24-.36-.68-.254-1.26-.6-1.74-1.04a4.586 4.586 0 01-1.1-1.6 5.01 5.01 0 01-.4-2.02c0-.734.133-1.407.4-2.02.253-.627.62-1.16 1.1-1.6.48-.44 1.06-.78 1.74-1.02.667-.254 1.413-.38 2.24-.38zm0 2.48c-1.04 0-1.86.226-2.46.68-.613.44-.92 1.06-.92 1.86s.307 1.426.92 1.88c.6.44 1.42.66 2.46.66 1.053 0 1.887-.22 2.5-.66.613-.454.92-1.08.92-1.88 0-.8-.307-1.42-.92-1.86-.613-.454-1.447-.68-2.5-.68zm0-14.433c.827 0 1.58.12 2.26.36.68.24 1.26.58 1.74 1.02.48.44.853.973 1.12 1.6.267.613.4 1.293.4 2.04 0 .746-.133 1.426-.4 2.04a4.617 4.617 0 01-1.12 1.58c-.48.44-1.06.786-1.74 1.04-.68.24-1.433.36-2.26.36-.827 0-1.573-.12-2.24-.36-.68-.254-1.26-.6-1.74-1.04a4.586 4.586 0 01-1.1-1.6 5.01 5.01 0 01-.4-2.02c0-.734.133-1.407.4-2.02.253-.627.62-1.16 1.1-1.6.48-.44 1.06-.78 1.74-1.02.667-.254 1.413-.38 2.24-.38zm0 2.48c-1.04 0-1.86.226-2.46.68-.613.44-.92 1.06-.92 1.86s.307 1.426.92 1.88c.6.44 1.42.66 2.46.66 1.053 0 1.887-.22 2.5-.66.613-.454.92-1.08.92-1.88 0-.8-.307-1.42-.92-1.86-.613-.454-1.447-.68-2.5-.68zm5.44-8.614c-.013.72-.093 1.32-.24 1.8-.147.467-.353.84-.62 1.12-.28.28-.62.48-1.02.6-.413.107-.88.16-1.4.16h-12.04l-.4-2.42h11.98c.293 0 .54-.02.74-.06.2-.053.373-.14.52-.26.133-.12.24-.28.32-.48.067-.213.12-.48.16-.8l2 .34zm-1.94-4.917c0-.64-.073-1.107-.22-1.4-.16-.293-.427-.44-.8-.44-.347 0-.633.16-.86.48-.227.307-.473.82-.74 1.54-.16.44-.327.847-.5 1.22-.187.36-.4.673-.64.94-.24.267-.527.48-.86.64-.347.147-.767.22-1.26.22-.96 0-1.713-.353-2.26-1.06-.56-.707-.84-1.667-.84-2.88 0-.613.06-1.2.18-1.76.107-.56.213-.98.32-1.26l1.96.44a5.45 5.45 0 00-.32 1.02c-.107.413-.16.893-.16 1.44 0 .493.087.893.26 1.2a.8.8 0 00.76.46c.173 0 .327-.027.46-.08.133-.067.26-.173.38-.32.107-.147.22-.34.34-.58.107-.24.22-.533.34-.88.213-.573.427-1.06.64-1.46.2-.4.433-.727.7-.98.253-.267.547-.46.88-.58.333-.12.733-.18 1.2-.18 1 0 1.76.373 2.28 1.12.507.733.76 1.787.76 3.16 0 .92-.08 1.66-.24 2.22-.147.56-.267.953-.36 1.18l-2.02-.42c.147-.36.287-.787.42-1.28.133-.507.2-1.08.2-1.72zM246.04 158.86c0 1.427.447 2.52 1.34 3.28.88.747 2.107 1.12 3.68 1.12.747 0 1.433-.087 2.06-.26a4.769 4.769 0 001.58-.8c.44-.36.787-.8 1.04-1.32.24-.533.36-1.153.36-1.86 0-.44-.013-.82-.04-1.14a5.321 5.321 0 00-.14-.76h-4.98v-2.52h6.66c.133.347.28.933.44 1.76.16.827.24 1.78.24 2.86 0 1-.16 1.913-.48 2.74a5.78 5.78 0 01-1.4 2.12c-.613.573-1.367 1.02-2.26 1.34-.893.32-1.92.48-3.08.48-1.16 0-2.187-.173-3.08-.52-.893-.36-1.647-.847-2.26-1.46a6.024 6.024 0 01-1.42-2.16 7.251 7.251 0 01-.48-2.64c0-.64.047-1.207.14-1.7.08-.507.173-.94.28-1.3.107-.36.22-.653.34-.88.12-.24.207-.407.26-.5l2.06.76c-.24.4-.44.9-.6 1.5a6.547 6.547 0 00-.26 1.86zm6.78-6.472c-.92 0-1.727-.134-2.42-.4-.693-.28-1.267-.647-1.72-1.1a4.344 4.344 0 01-1.04-1.56 4.716 4.716 0 01-.36-1.8c0-1.44.447-2.56 1.34-3.36.893-.814 2.227-1.22 4-1.22.133 0 .287.006.46.02.16 0 .307.006.44.02v6.9c.84-.067 1.493-.36 1.96-.88.453-.534.68-1.3.68-2.3 0-.587-.053-1.12-.16-1.6-.107-.494-.22-.88-.34-1.16l1.98-.32c.067.133.14.32.22.56a7.1 7.1 0 01.18.8 9.233 9.233 0 01.22 2.02c0 .92-.133 1.72-.4 2.4-.28.68-.66 1.24-1.14 1.68a4.791 4.791 0 01-1.72.98 7.129 7.129 0 01-2.18.32zm-1.08-7.02c-.333 0-.647.046-.94.14a2.076 2.076 0 00-.78.42c-.227.173-.4.393-.52.66-.133.253-.2.56-.2.92 0 .373.073.7.22.98.133.28.313.52.54.72.227.186.487.333.78.44.293.106.593.18.9.22v-4.5zm-3.86-4.986a16.288 16.288 0 01-.38-1.82c-.12-.747-.18-1.573-.18-2.48 0-.853.12-1.567.36-2.14.227-.573.553-1.027.98-1.36.413-.347.92-.587 1.52-.72a7.98 7.98 0 011.94-.22H258v2.42h-5.5c-.56 0-1.033.04-1.42.12-.4.067-.72.187-.96.36-.253.16-.433.387-.54.68-.12.28-.18.627-.18 1.04 0 .307.02.627.06.96.04.333.073.58.1.74H258v2.42h-10.12zm4.94-11.119c-.92 0-1.727-.134-2.42-.4-.693-.28-1.267-.647-1.72-1.1a4.344 4.344 0 01-1.04-1.56 4.716 4.716 0 01-.36-1.8c0-1.44.447-2.56 1.34-3.36.893-.814 2.227-1.22 4-1.22.133 0 .287.006.46.02.16 0 .307.006.44.02v6.9c.84-.067 1.493-.36 1.96-.88.453-.534.68-1.3.68-2.3 0-.587-.053-1.12-.16-1.6-.107-.494-.22-.88-.34-1.16l1.98-.32c.067.133.14.32.22.56a7.1 7.1 0 01.18.8 9.233 9.233 0 01.22 2.02c0 .92-.133 1.72-.4 2.4-.28.68-.66 1.24-1.14 1.68a4.791 4.791 0 01-1.72.98 7.129 7.129 0 01-2.18.32zm-1.08-7.02c-.333 0-.647.046-.94.14a2.076 2.076 0 00-.78.42c-.227.173-.4.393-.52.66-.133.253-.2.56-.2.92 0 .373.073.7.22.98.133.28.313.52.54.72.227.186.487.333.78.44.293.106.593.18.9.22v-4.5zm-2.02-10.946c-.067.2-.133.48-.2.84a5.475 5.475 0 00-.04 2.08c.053.293.1.5.14.62H258v2.42h-9.96a12.67 12.67 0 01-.48-1.74c-.16-.707-.24-1.487-.24-2.34 0-.16.013-.347.04-.56a5.18 5.18 0 01.08-.64c.027-.213.067-.42.12-.62.04-.2.08-.36.12-.48l2.04.42zm8.28-4.547v2.42h-10.46v-2.42H258zm-13.52-.26c.453 0 .813.147 1.08.44.267.294.4.64.4 1.04 0 .414-.133.767-.4 1.06-.267.294-.627.44-1.08.44-.467 0-.833-.146-1.1-.44a1.517 1.517 0 01-.4-1.06c0-.4.133-.746.4-1.04.267-.293.633-.44 1.1-.44zm8.3-2.247c-.773 0-1.493-.12-2.16-.36a5.217 5.217 0 01-1.76-1.02c-.493-.453-.88-1-1.16-1.64-.28-.64-.42-1.36-.42-2.16 0-.987.18-1.92.54-2.8l1.98.52c-.12.28-.22.6-.3.96-.08.347-.12.72-.12 1.12 0 .947.3 1.667.9 2.16.587.493 1.42.74 2.5.74 1.04 0 1.867-.233 2.48-.7.6-.467.9-1.253.9-2.36 0-.413-.04-.82-.12-1.22-.08-.4-.18-.746-.3-1.04l2-.34c.133.267.253.674.36 1.22.107.534.16 1.087.16 1.66 0 .893-.133 1.673-.4 2.34-.28.653-.66 1.2-1.14 1.64a4.9 4.9 0 01-1.74.96c-.68.213-1.413.32-2.2.32zM338 165.34h-13.86v-8.9h2.14v6.38h3.42v-5.68h2.1v5.68h4.06v-6.86H338v9.38zm.2-15.239c-.013.72-.093 1.32-.24 1.8-.147.467-.353.84-.62 1.12-.28.28-.62.48-1.02.6-.413.107-.88.16-1.4.16h-12.04l-.4-2.42h11.98c.293 0 .54-.02.74-.06.2-.053.373-.14.52-.26.133-.12.24-.28.32-.48.067-.213.12-.48.16-.8l2 .34zm-5.38-1.717c-.92 0-1.727-.134-2.42-.4-.693-.28-1.267-.647-1.72-1.1a4.344 4.344 0 01-1.04-1.56 4.716 4.716 0 01-.36-1.8c0-1.44.447-2.56 1.34-3.36.893-.814 2.227-1.22 4-1.22.133 0 .287.006.46.02.16 0 .307.006.44.02v6.9c.84-.067 1.493-.36 1.96-.88.453-.534.68-1.3.68-2.3 0-.587-.053-1.12-.16-1.6-.107-.494-.22-.88-.34-1.16l1.98-.32c.067.133.14.32.22.56a7.1 7.1 0 01.18.8 9.233 9.233 0 01.22 2.02c0 .92-.133 1.72-.4 2.4-.28.68-.66 1.24-1.14 1.68a4.791 4.791 0 01-1.72.98 7.129 7.129 0 01-2.18.32zm-1.08-7.02c-.333 0-.647.046-.94.14a2.076 2.076 0 00-.78.42c-.227.173-.4.393-.52.66-.133.253-.2.56-.2.92 0 .373.073.7.22.98.133.28.313.52.54.72.227.186.487.333.78.44.293.106.593.18.9.22v-4.5zm.76-10.946c-1.093 0-1.88.14-2.36.42-.493.267-.74.773-.74 1.52 0 .267.02.56.06.88.04.32.073.56.1.72H338v2.42h-10.12a16.288 16.288 0 01-.38-1.82c-.12-.76-.18-1.56-.18-2.4 0-.72.093-1.307.28-1.76.187-.467.433-.853.74-1.16a4.99 4.99 0 01-.66-1.32 6.108 6.108 0 01-.26-.88c-.067-.32-.1-.64-.1-.96 0-.813.12-1.48.36-2 .227-.533.553-.947.98-1.24.413-.307.92-.513 1.52-.62a9.698 9.698 0 011.94-.18H338v2.42h-5.5c-1.093 0-1.88.133-2.36.4-.493.267-.74.78-.74 1.54 0 .387.067.753.2 1.1.12.347.24.607.36.78a5.31 5.31 0 011.06-.22c.373-.04.773-.06 1.2-.06H338v2.42h-5.5zm.32-10.765c-.92 0-1.727-.133-2.42-.4-.693-.28-1.267-.646-1.72-1.1a4.327 4.327 0 01-1.04-1.56 4.709 4.709 0 01-.36-1.8c0-1.44.447-2.56 1.34-3.36.893-.813 2.227-1.22 4-1.22.133 0 .287.007.46.02.16 0 .307.007.44.02v6.9c.84-.066 1.493-.36 1.96-.88.453-.533.68-1.3.68-2.3 0-.586-.053-1.12-.16-1.6-.107-.493-.22-.88-.34-1.16l1.98-.32c.067.134.14.32.22.56.067.227.127.494.18.8a9.246 9.246 0 01.22 2.02c0 .92-.133 1.72-.4 2.4-.28.68-.66 1.24-1.14 1.68a4.777 4.777 0 01-1.72.98 7.099 7.099 0 01-2.18.32zm-1.08-7.02c-.333 0-.647.047-.94.14a2.105 2.105 0 00-.78.42c-.227.174-.4.394-.52.66-.133.254-.2.56-.2.92 0 .374.073.7.22.98.133.28.313.52.54.72.227.187.487.334.78.44.293.107.593.18.9.22v-4.5zm-3.86-4.986a16.24 16.24 0 01-.38-1.82c-.12-.746-.18-1.573-.18-2.48 0-.853.12-1.566.36-2.14.227-.573.553-1.026.98-1.36.413-.346.92-.586 1.52-.72a7.995 7.995 0 011.94-.22H338v2.42h-5.5c-.56 0-1.033.04-1.42.12-.4.067-.72.187-.96.36-.253.16-.433.387-.54.68-.12.28-.18.627-.18 1.04 0 .307.02.627.06.96.04.334.073.58.1.74H338v2.42h-10.12zm-3.1-11.579l-.4-2.42h3.16v-3.72h2.02v3.72h4.26c.84 0 1.44-.133 1.8-.4.36-.266.54-.72.54-1.36 0-.44-.047-.826-.14-1.16a7.606 7.606 0 00-.26-.82l1.92-.4c.12.28.24.647.36 1.1.133.454.2.987.2 1.6 0 .747-.1 1.374-.3 1.88-.2.494-.487.887-.86 1.18-.387.294-.847.5-1.38.62-.547.12-1.167.18-1.86.18h-9.06zm11.48-11.1c0-.64-.073-1.106-.22-1.4-.16-.292-.427-.44-.8-.44-.347 0-.633.16-.86.48-.227.308-.473.82-.74 1.54-.16.44-.327.848-.5 1.22-.187.36-.4.674-.64.94a2.74 2.74 0 01-.86.64c-.347.148-.767.22-1.26.22-.96 0-1.713-.352-2.26-1.06-.56-.706-.84-1.666-.84-2.88 0-.612.06-1.2.18-1.76.107-.56.213-.98.32-1.26l1.96.44c-.12.268-.227.608-.32 1.02a5.78 5.78 0 00-.16 1.44c0 .494.087.894.26 1.2a.8.8 0 00.76.46c.173 0 .327-.026.46-.08.133-.066.26-.172.38-.32.107-.146.22-.34.34-.58.107-.24.22-.532.34-.88.213-.572.427-1.06.64-1.46.2-.4.433-.726.7-.98.253-.266.547-.46.88-.58.333-.12.733-.18 1.2-.18 1 0 1.76.374 2.28 1.12.507.734.76 1.788.76 3.16 0 .92-.08 1.66-.24 2.22-.147.56-.267.954-.36 1.18l-2.02-.42c.147-.36.287-.786.42-1.28.133-.506.2-1.08.2-1.72zM407.06 163.28c.76 0 1.453-.093 2.08-.28a4.769 4.769 0 001.58-.8c.427-.36.76-.793 1-1.3s.36-1.08.36-1.72c0-.627-.12-1.193-.36-1.7a3.623 3.623 0 00-1-1.28 4.568 4.568 0 00-1.58-.82 7.258 7.258 0 00-2.08-.28c-.76 0-1.447.093-2.06.28-.627.187-1.153.46-1.58.82-.44.347-.78.773-1.02 1.28a3.922 3.922 0 00-.36 1.7c0 .64.12 1.213.36 1.72.24.507.58.94 1.02 1.3.44.347.967.613 1.58.8.613.187 1.3.28 2.06.28zm0-10.82c1.187 0 2.233.18 3.14.54.907.347 1.667.827 2.28 1.44.6.6 1.053 1.307 1.36 2.12a7.3 7.3 0 01.46 2.6c0 .92-.153 1.793-.46 2.62a6.11 6.11 0 01-1.36 2.14c-.613.6-1.373 1.08-2.28 1.44-.907.36-1.953.54-3.14.54s-2.227-.18-3.12-.54c-.907-.36-1.667-.847-2.28-1.46a6.184 6.184 0 01-1.38-2.16 7.241 7.241 0 01-.46-2.58c0-.907.153-1.767.46-2.58a5.793 5.793 0 011.38-2.12c.613-.613 1.373-1.1 2.28-1.46.893-.36 1.933-.54 3.12-.54zm1.68-9.585c-1.027 0-1.84.207-2.44.62-.6.4-.9 1.04-.9 1.92 0 .4.06.78.18 1.14.12.347.253.627.4.84H412c.04-.173.08-.393.12-.66.027-.28.04-.613.04-1 0-.893-.3-1.593-.9-2.1-.613-.506-1.453-.76-2.52-.76zm.04-2.48c.84 0 1.6.127 2.28.38.667.24 1.24.594 1.72 1.06.48.454.847 1.007 1.1 1.66.253.654.38 1.394.38 2.22 0 .8-.06 1.567-.18 2.3-.12.72-.253 1.32-.4 1.8h-14.8l-.4-2.42h5.42c-.147-.28-.28-.62-.4-1.02a4.86 4.86 0 01-.18-1.36c0-.733.133-1.386.4-1.96a3.756 3.756 0 011.1-1.46c.48-.386 1.06-.68 1.74-.88.667-.213 1.407-.32 2.22-.32zm8.94-1.154c0 .174-.02.414-.06.72-.027.32-.087.6-.18.84l-1.98-.32c.093-.293.14-.646.14-1.06 0-.56-.167-.953-.5-1.18-.32-.226-.807-.34-1.46-.34h-10.14v-2.42h10.18c1.36 0 2.367.327 3.02.98.653.64.98 1.567.98 2.78zm-17.24-4.02c.453 0 .813.147 1.08.44.267.294.4.64.4 1.04 0 .414-.133.767-.4 1.06-.267.294-.627.44-1.08.44-.467 0-.833-.146-1.1-.44a1.517 1.517 0 01-.4-1.06c0-.4.133-.746.4-1.04.267-.293.633-.44 1.1-.44zm8.34-2.247c-.92 0-1.727-.134-2.42-.4-.693-.28-1.267-.647-1.72-1.1a4.344 4.344 0 01-1.04-1.56 4.716 4.716 0 01-.36-1.8c0-1.44.447-2.56 1.34-3.36.893-.814 2.227-1.22 4-1.22.133 0 .287.006.46.02.16 0 .307.006.44.02v6.9c.84-.067 1.493-.36 1.96-.88.453-.534.68-1.3.68-2.3 0-.587-.053-1.12-.16-1.6-.107-.494-.22-.88-.34-1.16l1.98-.32c.067.133.14.32.22.56a7.1 7.1 0 01.18.8 9.233 9.233 0 01.22 2.02c0 .92-.133 1.72-.4 2.4-.28.68-.66 1.24-1.14 1.68a4.791 4.791 0 01-1.72.98 7.129 7.129 0 01-2.18.32zm-1.08-7.02c-.333 0-.647.046-.94.14a2.076 2.076 0 00-.78.42c-.227.173-.4.393-.52.66-.133.253-.2.56-.2.92 0 .373.073.7.22.98.133.28.313.52.54.72.227.186.487.333.78.44.293.106.593.18.9.22v-4.5zm1.04-4.406c-.773 0-1.493-.12-2.16-.36a5.217 5.217 0 01-1.76-1.02c-.493-.454-.88-1-1.16-1.64-.28-.64-.42-1.36-.42-2.16 0-.987.18-1.92.54-2.8l1.98.52c-.12.28-.22.6-.3.96-.08.346-.12.72-.12 1.12 0 .946.3 1.666.9 2.16.587.493 1.42.74 2.5.74 1.04 0 1.867-.234 2.48-.7.6-.467.9-1.254.9-2.36a6.2 6.2 0 00-.12-1.22c-.08-.4-.18-.747-.3-1.04l2-.34c.133.266.253.673.36 1.22.107.533.16 1.086.16 1.66 0 .893-.133 1.673-.4 2.34-.28.653-.66 1.2-1.14 1.64a4.93 4.93 0 01-1.74.96c-.68.213-1.413.32-2.2.32zm-8-9.894l-.4-2.42h3.16v-3.72h2.02v3.72h4.26c.84 0 1.44-.133 1.8-.4.36-.266.54-.72.54-1.36 0-.44-.047-.826-.14-1.16a7.658 7.658 0 00-.26-.82l1.92-.4c.12.28.24.647.36 1.1.133.454.2.987.2 1.6 0 .747-.1 1.374-.3 1.88-.2.494-.487.887-.86 1.18-.387.294-.847.5-1.38.62-.547.12-1.167.18-1.86.18h-9.06zm11.48-11.099c0-.64-.073-1.107-.22-1.4-.16-.293-.427-.44-.8-.44-.347 0-.633.16-.86.48-.227.306-.473.82-.74 1.54-.16.44-.327.847-.5 1.22-.187.36-.4.673-.64.94-.24.267-.527.48-.86.64-.347.147-.767.22-1.26.22-.96 0-1.713-.353-2.26-1.06-.56-.707-.84-1.667-.84-2.88 0-.614.06-1.2.18-1.76.107-.56.213-.98.32-1.26l1.96.44c-.12.266-.227.606-.32 1.02a5.78 5.78 0 00-.16 1.44c0 .493.087.893.26 1.2a.8.8 0 00.76.46c.173 0 .327-.027.46-.08.133-.067.26-.173.38-.32.107-.147.22-.34.34-.58.107-.24.22-.534.34-.88.213-.574.427-1.06.64-1.46.2-.4.433-.727.7-.98.253-.267.547-.46.88-.58.333-.12.733-.18 1.2-.18 1 0 1.76.373 2.28 1.12.507.733.76 1.786.76 3.16 0 .92-.08 1.66-.24 2.22-.147.56-.267.953-.36 1.18l-2.02-.42c.147-.36.287-.787.42-1.28.133-.507.2-1.08.2-1.72zM547.3 159.18c0 1.04-.16 1.973-.48 2.8a5.59 5.59 0 01-1.4 2.1c-.627.573-1.387 1.013-2.28 1.32-.893.307-1.92.46-3.08.46-1.16 0-2.187-.173-3.08-.52-.893-.36-1.647-.847-2.26-1.46a6.024 6.024 0 01-1.42-2.16 7.304 7.304 0 01-.48-2.66c0-.573.047-1.093.14-1.56.08-.467.173-.873.28-1.22.107-.347.22-.633.34-.86.12-.227.207-.387.26-.48l2.06.74c-.2.32-.387.78-.56 1.38a6.296 6.296 0 00-.28 1.92c0 .6.107 1.16.32 1.68.2.52.507.973.92 1.36.413.373.933.667 1.56.88.627.213 1.353.32 2.18.32.733 0 1.407-.08 2.02-.24a4.701 4.701 0 001.6-.78c.44-.347.787-.787 1.04-1.32.24-.533.36-1.173.36-1.92 0-.893-.087-1.62-.26-2.18-.187-.56-.36-.993-.52-1.3l2.06-.68c.107.16.213.38.32.66.107.267.213.587.32.96.093.373.167.793.22 1.26.067.467.1.967.1 1.5zm-5.54-15.68c.827 0 1.58.12 2.26.36.68.24 1.26.58 1.74 1.02.48.44.853.973 1.12 1.6.267.613.4 1.293.4 2.04 0 .747-.133 1.427-.4 2.04a4.617 4.617 0 01-1.12 1.58c-.48.44-1.06.787-1.74 1.04-.68.24-1.433.36-2.26.36-.827 0-1.573-.12-2.24-.36-.68-.253-1.26-.6-1.74-1.04a4.577 4.577 0 01-1.1-1.6 5.006 5.006 0 01-.4-2.02c0-.733.133-1.407.4-2.02.253-.627.62-1.16 1.1-1.6.48-.44 1.06-.78 1.74-1.02.667-.253 1.413-.38 2.24-.38zm0 2.48c-1.04 0-1.86.227-2.46.68-.613.44-.92 1.06-.92 1.86s.307 1.427.92 1.88c.6.44 1.42.66 2.46.66 1.053 0 1.887-.22 2.5-.66.613-.453.92-1.08.92-1.88 0-.8-.307-1.42-.92-1.86-.613-.453-1.447-.68-2.5-.68zm-.26-10.933c-1.093 0-1.88.14-2.36.42-.493.267-.74.773-.74 1.52 0 .267.02.56.06.88.04.32.073.56.1.72H547v2.42h-10.12a16.288 16.288 0 01-.38-1.82c-.12-.76-.18-1.56-.18-2.4 0-.72.093-1.307.28-1.76.187-.467.433-.853.74-1.16a4.99 4.99 0 01-.66-1.32 6.108 6.108 0 01-.26-.88c-.067-.32-.1-.64-.1-.96 0-.813.12-1.48.36-2 .227-.533.553-.947.98-1.24.413-.307.92-.513 1.52-.62a9.698 9.698 0 011.94-.18H547v2.42h-5.5c-1.093 0-1.88.133-2.36.4-.493.267-.74.78-.74 1.54 0 .387.067.753.2 1.1.12.347.24.607.36.78a5.31 5.31 0 011.06-.22c.373-.04.773-.06 1.2-.06H547v2.42h-5.5zm.32-18.285c-1.08 0-1.92.247-2.52.74-.6.48-.9 1.26-.9 2.34 0 .227.013.467.04.72.013.24.053.48.12.72h5.98c.147-.213.287-.493.42-.84.12-.36.18-.74.18-1.14 0-.88-.3-1.52-.9-1.92-.6-.413-1.407-.62-2.42-.62zm-.04-2.48a7.2 7.2 0 012.2.32c.667.2 1.24.494 1.72.88.48.387.853.874 1.12 1.46.267.574.4 1.227.4 1.96 0 .494-.06.947-.18 1.36a5.03 5.03 0 01-.4 1.02h4.06v2.42h-13.82c-.133-.493-.26-1.1-.38-1.82s-.18-1.48-.18-2.28c0-.826.127-1.566.38-2.22a4.474 4.474 0 011.1-1.66 4.528 4.528 0 011.72-1.06c.667-.253 1.42-.38 2.26-.38zm-.02-11.954c.827 0 1.58.12 2.26.36.68.24 1.26.58 1.74 1.02.48.44.853.973 1.12 1.6.267.613.4 1.293.4 2.04 0 .747-.133 1.427-.4 2.04a4.617 4.617 0 01-1.12 1.58c-.48.44-1.06.787-1.74 1.04-.68.24-1.433.36-2.26.36-.827 0-1.573-.12-2.24-.36-.68-.253-1.26-.6-1.74-1.04a4.577 4.577 0 01-1.1-1.6 5.006 5.006 0 01-.4-2.02c0-.733.133-1.407.4-2.02.253-.627.62-1.16 1.1-1.6.48-.44 1.06-.78 1.74-1.02.667-.253 1.413-.38 2.24-.38zm0 2.48c-1.04 0-1.86.227-2.46.68-.613.44-.92 1.06-.92 1.86s.307 1.427.92 1.88c.6.44 1.42.66 2.46.66 1.053 0 1.887-.22 2.5-.66.613-.453.92-1.08.92-1.88 0-.8-.307-1.42-.92-1.86-.613-.453-1.447-.68-2.5-.68zm-4.88-4.973a16.288 16.288 0 01-.38-1.82c-.12-.747-.18-1.573-.18-2.48 0-.853.12-1.567.36-2.14.227-.573.553-1.027.98-1.36.413-.347.92-.587 1.52-.72a7.995 7.995 0 011.94-.22H547v2.42h-5.5c-.56 0-1.033.04-1.42.12-.4.067-.72.187-.96.36-.253.16-.433.387-.54.68-.12.28-.18.627-.18 1.04 0 .307.02.627.06.96.04.333.073.58.1.74H547v2.42h-10.12zm4.94-11.12c-.92 0-1.727-.133-2.42-.4-.693-.28-1.267-.646-1.72-1.1a4.334 4.334 0 01-1.04-1.56 4.714 4.714 0 01-.36-1.8c0-1.44.447-2.56 1.34-3.36.893-.813 2.227-1.22 4-1.22.133 0 .287.007.46.02.16 0 .307.007.44.02v6.9c.84-.066 1.493-.36 1.96-.88.453-.533.68-1.3.68-2.3 0-.586-.053-1.12-.16-1.6-.107-.493-.22-.88-.34-1.16l1.98-.32c.067.134.14.32.22.56.067.227.127.494.18.8a9.24 9.24 0 01.22 2.02c0 .92-.133 1.72-.4 2.4-.28.68-.66 1.24-1.14 1.68a4.783 4.783 0 01-1.72.98 7.12 7.12 0 01-2.18.32zm-1.08-7.02a3.08 3.08 0 00-.94.14 2.085 2.085 0 00-.78.42c-.227.174-.4.394-.52.66-.133.254-.2.56-.2.92 0 .374.073.7.22.98.133.28.313.52.54.72.227.187.487.334.78.44.293.107.593.18.9.22v-4.5zm-3.86-4.985a16.288 16.288 0 01-.38-1.82c-.12-.747-.18-1.573-.18-2.48 0-.853.12-1.567.36-2.14.227-.573.553-1.027.98-1.36.413-.347.92-.587 1.52-.72a7.995 7.995 0 011.94-.22H547v2.42h-5.5c-.56 0-1.033.04-1.42.12-.4.067-.72.187-.96.36-.253.16-.433.387-.54.68-.12.28-.18.627-.18 1.04 0 .307.02.627.06.96.04.333.073.58.1.74H547v2.42h-10.12zm-3.1-11.58l-.4-2.42h3.16v-3.72h2.02v3.72h4.26c.84 0 1.44-.133 1.8-.4.36-.266.54-.72.54-1.36 0-.44-.047-.826-.14-1.16a7.606 7.606 0 00-.26-.82l1.92-.4c.12.28.24.647.36 1.1.133.454.2.987.2 1.6 0 .747-.1 1.374-.3 1.88-.2.494-.487.887-.86 1.18-.387.294-.847.5-1.38.62-.547.12-1.167.18-1.86.18h-9.06zm11.48-11.099c0-.64-.073-1.106-.22-1.4-.16-.293-.427-.44-.8-.44-.347 0-.633.16-.86.48-.227.307-.473.82-.74 1.54-.16.44-.327.847-.5 1.22-.187.36-.4.674-.64.94a2.74 2.74 0 01-.86.64c-.347.147-.767.22-1.26.22-.96 0-1.713-.353-2.26-1.06-.56-.706-.84-1.666-.84-2.88 0-.613.06-1.2.18-1.76.107-.56.213-.98.32-1.26l1.96.44c-.12.267-.227.607-.32 1.02a5.78 5.78 0 00-.16 1.44c0 .494.087.894.26 1.2a.8.8 0 00.76.46c.173 0 .327-.026.46-.08.133-.066.26-.173.38-.32.107-.146.22-.34.34-.58.107-.24.22-.533.34-.88.213-.573.427-1.06.64-1.46.2-.4.433-.726.7-.98.253-.266.547-.46.88-.58.333-.12.733-.18 1.2-.18 1 0 1.76.374 2.28 1.12.507.734.76 1.787.76 3.16 0 .92-.08 1.66-.24 2.22-.147.56-.267.954-.36 1.18l-2.02-.42c.147-.36.287-.786.42-1.28.133-.506.2-1.08.2-1.72zM687.3 160c0 .947-.133 1.76-.4 2.44a4.7 4.7 0 01-1.16 1.7 4.746 4.746 0 01-1.74.98 7.2 7.2 0 01-2.2.32h-8.66v-2.54h8.42c.627 0 1.167-.067 1.62-.2.44-.147.8-.347 1.08-.6.28-.267.487-.573.62-.92.133-.36.2-.76.2-1.2 0-.44-.067-.84-.2-1.2a2.292 2.292 0 00-.62-.92c-.28-.267-.64-.467-1.08-.6-.453-.147-.993-.22-1.62-.22h-8.42v-2.54h8.66c.8 0 1.533.113 2.2.34a4.609 4.609 0 011.74 1c.493.44.88 1.007 1.16 1.7.267.693.4 1.513.4 2.46zm-13.52-8.483l-.4-2.42h3.16v-3.72h2.02v3.72h4.26c.84 0 1.44-.133 1.8-.4.36-.266.54-.72.54-1.36 0-.44-.047-.826-.14-1.16a7.658 7.658 0 00-.26-.82l1.92-.4c.12.28.24.647.36 1.1.133.454.2.987.2 1.601 0 .746-.1 1.373-.3 1.879-.2.494-.487.887-.86 1.18-.387.294-.847.5-1.38.62-.547.12-1.167.18-1.86.18h-9.06zM687 140.598v2.42h-10.46v-2.42H687zm-13.52-.26c.453 0 .813.147 1.08.44.267.293.4.64.4 1.04 0 .413-.133.767-.4 1.06-.267.293-.627.44-1.08.44-.467 0-.833-.147-1.1-.44a1.519 1.519 0 01-.4-1.06c0-.4.133-.747.4-1.04.267-.293.633-.44 1.1-.44zm13.72-6.467c-.013.72-.093 1.32-.24 1.8-.147.466-.353.84-.62 1.12-.28.28-.62.48-1.02.6-.413.106-.88.16-1.4.16h-12.04l-.4-2.42h11.98c.293 0 .54-.02.74-.06.2-.054.373-.14.52-.26.133-.12.24-.28.32-.48.067-.214.12-.48.16-.8l2 .34zm-.2-4.738v2.42h-10.46v-2.42H687zm-13.52-.26c.453 0 .813.147 1.08.44.267.294.4.64.4 1.04 0 .414-.133.767-.4 1.06-.267.294-.627.44-1.08.44-.467 0-.833-.146-1.1-.44a1.517 1.517 0 01-.4-1.06c0-.4.133-.746.4-1.04.267-.293.633-.44 1.1-.44zm.3-2.707l-.4-2.42h3.16v-3.72h2.02v3.72h4.26c.84 0 1.44-.133 1.8-.4.36-.267.54-.72.54-1.36 0-.44-.047-.827-.14-1.16a7.584 7.584 0 00-.26-.82l1.92-.4c.12.28.24.647.36 1.1.133.453.2.987.2 1.6 0 .747-.1 1.373-.3 1.88-.2.493-.487.887-.86 1.18-.387.293-.847.5-1.38.62-.547.12-1.167.18-1.86.18h-9.06zM687 115.247v2.42h-10.46v-2.42H687zm-13.52-.26c.453 0 .813.146 1.08.44.267.293.4.64.4 1.04 0 .413-.133.766-.4 1.06-.267.293-.627.44-1.08.44-.467 0-.833-.147-1.1-.44a1.52 1.52 0 01-.4-1.06c0-.4.133-.747.4-1.04.267-.294.633-.44 1.1-.44zm8.34-2.248c-.92 0-1.727-.133-2.42-.4-.693-.28-1.267-.646-1.72-1.1a4.327 4.327 0 01-1.04-1.56 4.709 4.709 0 01-.36-1.8c0-1.44.447-2.56 1.34-3.36.893-.813 2.227-1.22 4-1.22.133 0 .287.007.46.02.16 0 .307.007.44.02v6.9c.84-.066 1.493-.36 1.96-.88.453-.533.68-1.3.68-2.3 0-.586-.053-1.12-.16-1.6-.107-.493-.22-.88-.34-1.16l1.98-.32c.067.134.14.32.22.56.067.227.127.494.18.8a9.246 9.246 0 01.22 2.02c0 .92-.133 1.72-.4 2.4-.28.68-.66 1.24-1.14 1.68a4.777 4.777 0 01-1.72.98 7.099 7.099 0 01-2.18.32zm-1.08-7.02c-.333 0-.647.047-.94.14a2.105 2.105 0 00-.78.42c-.227.174-.4.394-.52.66-.133.254-.2.56-.2.92 0 .374.073.7.22.98.133.28.313.52.54.72.227.187.487.334.78.44.293.107.593.18.9.22v-4.5zm4.52-7.606c0-.64-.073-1.106-.22-1.4-.16-.293-.427-.44-.8-.44-.347 0-.633.16-.86.48-.227.307-.473.82-.74 1.54-.16.44-.327.847-.5 1.22-.187.36-.4.674-.64.94-.24.267-.527.48-.86.64-.347.147-.767.22-1.26.22-.96 0-1.713-.353-2.26-1.06-.56-.706-.84-1.666-.84-2.88 0-.613.06-1.2.18-1.76.107-.56.213-.98.32-1.26l1.96.44c-.12.267-.227.607-.32 1.02a5.78 5.78 0 00-.16 1.44c0 .494.087.894.26 1.2a.8.8 0 00.76.46c.173 0 .327-.026.46-.08a1.19 1.19 0 00.38-.32c.107-.146.22-.34.34-.58.107-.24.22-.533.34-.88.213-.573.427-1.06.64-1.46.2-.4.433-.726.7-.98.253-.266.547-.46.88-.58.333-.12.733-.18 1.2-.18 1 0 1.76.374 2.28 1.12.507.734.76 1.787.76 3.16 0 .92-.08 1.66-.24 2.22-.147.56-.267.954-.36 1.18l-2.02-.42c.147-.36.287-.786.42-1.28.133-.506.2-1.08.2-1.72z"/></g><path d="M64 438v1h1v-1h-1zM64 3h1V2h-1v1zm-2 435h-1v1h1v-1zM62 3V2h-1v1h1zm80 435v1h1v-1h-1zm0-435h1V2h-1v1zm-2 435h-1v1h1v-1zm0-435V2h-1v1h1zm77 435v1h1v-1h-1zm0-435h1V2h-1v1zm-2 435h-1v1h1v-1zm0-435V2h-1v1h1zm78 435v1h1v-1h-1zm0-435h1V2h-1v1zm-2 435h-1v1h1v-1zm0-435V2h-1v1h1zm78 435v1h1v-1h-1zm0-435h1V2h-1v1zm-2 435h-1v1h1v-1zm0-435V2h-1v1h1zm78 435v1h1v-1h-1zm0-435h1V2h-1v1zm-2 435h-1v1h1v-1zm0-435V2h-1v1h1zm272 433.999l.001 1 1-.001-.001-1-1 .001zm-.5-435l1-.001-.001-1h-1l.001 1zM713 437l-1 .001.001 1 1-.001-.001-1zm-.5-435l-.001-1-1 .001.001 1h1zM647 437l.001 1 1-.001-.001-1-1 .001zm-.5-435l1-.001-.001-1h-1l.001 1zM645 437l-1 .001.001 1 1-.001-.001-1zm-.5-435l-.001-1-1 .001.001 1h1zM65 438V3h-2v435h2zm-3 1h2v-2h-2v2zM61 3v435h2V3h-2zm3-1h-2v2h2V2zm79 436V3h-2v435h2zm-3 1h2v-2h-2v2zM139 3v435h2V3h-2zm3-1h-2v2h2V2zm76 436V3h-2v435h2zm-3 1h2v-2h-2v2zM214 3v435h2V3h-2zm3-1h-2v2h2V2zm77 436V3h-2v435h2zm-3 1h2v-2h-2v2zM290 3v435h2V3h-2zm3-1h-2v2h2V2zm77 436V3h-2v435h2zm-3 1h2v-2h-2v2zM366 3v435h2V3h-2zm3-1h-2v2h2V2zm77 436V3h-2v435h2zm-3 1h2v-2h-2v2zM442 3v435h2V3h-2zm3-1h-2v2h2V2zm271 434.998l-.5-435-2 .002.5 435 2-.002zm-2.999 1.003l2-.002-.002-2-2 .002.002 2zM711.5 2.002l.5 435 2-.002-.5-435-2 .002zM714.499 1l-2 .002.002 2 2-.002-.002-2zM648 436.998l-.5-435-2 .002.5 435 2-.002zm-2.999 1.003l2-.002-.002-2-2 .002.002 2zM643.5 2.002l.5 435 2-.002-.5-435-2 .002zM646.499 1l-2 .002.002 2 2-.002-.002-2z" fill="#E9EFF3"/><path d="M31.715 2v439.027H751" stroke="#12355B" stroke-width="6"/><path d="M304.42 464.82V467h-8.76v-13.86h2.52v11.68h6.24zm11.068-3.06c0 .827-.12 1.58-.36 2.26-.24.68-.58 1.26-1.02 1.74-.44.48-.973.853-1.6 1.12-.613.267-1.293.4-2.04.4-.746 0-1.426-.133-2.04-.4a4.617 4.617 0 01-1.58-1.12 5.268 5.268 0 01-1.04-1.74c-.24-.68-.36-1.433-.36-2.26 0-.827.12-1.573.36-2.24.254-.68.6-1.26 1.04-1.74.454-.48.987-.847 1.6-1.1a5.01 5.01 0 012.02-.4c.734 0 1.407.133 2.02.4.627.253 1.16.62 1.6 1.1.44.48.78 1.06 1.02 1.74.254.667.38 1.413.38 2.24zm-2.48 0c0-1.04-.226-1.86-.68-2.46-.44-.613-1.06-.92-1.86-.92s-1.426.307-1.88.92c-.44.6-.66 1.42-.66 2.46 0 1.053.22 1.887.66 2.5.454.613 1.08.92 1.88.92.8 0 1.42-.307 1.86-.92.454-.613.68-1.447.68-2.5zm4.393.02c0-.773.12-1.493.36-2.16.24-.68.58-1.267 1.02-1.76.454-.493 1-.88 1.64-1.16.64-.28 1.36-.42 2.16-.42.987 0 1.92.18 2.8.54l-.52 1.98c-.28-.12-.6-.22-.96-.3a4.97 4.97 0 00-1.12-.12c-.946 0-1.666.3-2.16.9-.493.587-.74 1.42-.74 2.5 0 1.04.234 1.867.7 2.48.467.6 1.254.9 2.36.9a6.2 6.2 0 001.22-.12c.4-.08.747-.18 1.04-.3l.34 2c-.266.133-.673.253-1.22.36a8.413 8.413 0 01-1.66.16c-.893 0-1.673-.133-2.34-.4-.653-.28-1.2-.66-1.64-1.14a4.93 4.93 0 01-.96-1.74 7.322 7.322 0 01-.32-2.2zm13.694 3.52c.747 0 1.313-.04 1.7-.12v-2.68a5.401 5.401 0 00-1.42-.18c-.267 0-.54.02-.82.06a2.64 2.64 0 00-.74.22c-.213.107-.387.26-.52.46-.133.187-.2.427-.2.72 0 .573.18.973.54 1.2.36.213.847.32 1.46.32zm-.2-9.02c.8 0 1.473.1 2.02.3.547.2.98.48 1.3.84.333.36.567.8.7 1.32a6.02 6.02 0 01.22 1.68v6.34c-.373.08-.94.173-1.7.28-.747.12-1.593.18-2.54.18-.627 0-1.2-.06-1.72-.18a3.707 3.707 0 01-1.34-.58 2.86 2.86 0 01-.86-1.04c-.2-.427-.3-.953-.3-1.58 0-.6.113-1.107.34-1.52.24-.413.56-.747.96-1 .4-.267.86-.453 1.38-.56a7.54 7.54 0 011.66-.18c.267 0 .547.02.84.06.293.027.607.08.94.16v-.4c0-.28-.033-.547-.1-.8a1.535 1.535 0 00-.36-.66c-.16-.2-.38-.353-.66-.46-.267-.107-.607-.16-1.02-.16-.56 0-1.073.04-1.54.12-.467.08-.847.173-1.14.28l-.3-1.96c.307-.107.753-.213 1.34-.32.587-.107 1.213-.16 1.88-.16zm7.084-2.5l2.42-.4v3.16h3.72v2.02h-3.72v4.26c0 .84.133 1.44.4 1.8.266.36.72.54 1.36.54.44 0 .826-.047 1.16-.14.346-.093.62-.18.82-.26l.4 1.92c-.28.12-.647.24-1.1.36-.454.133-.987.2-1.6.2-.747 0-1.374-.1-1.88-.3a2.798 2.798 0 01-1.18-.86 3.529 3.529 0 01-.62-1.38 8.719 8.719 0 01-.18-1.86v-9.06zM348.898 467h-2.42v-10.46h2.42V467zm.26-13.52c0 .453-.147.813-.44 1.08-.293.267-.64.4-1.04.4-.413 0-.767-.133-1.06-.4-.293-.267-.44-.627-.44-1.08 0-.467.147-.833.44-1.1.293-.267.647-.4 1.06-.4.4 0 .747.133 1.04.4.293.267.44.633.44 1.1zm12.287 8.28c0 .827-.12 1.58-.36 2.26-.24.68-.58 1.26-1.02 1.74-.44.48-.973.853-1.6 1.12-.613.267-1.293.4-2.04.4-.746 0-1.426-.133-2.04-.4a4.617 4.617 0 01-1.58-1.12 5.268 5.268 0 01-1.04-1.74c-.24-.68-.36-1.433-.36-2.26 0-.827.12-1.573.36-2.24.254-.68.6-1.26 1.04-1.74.454-.48.987-.847 1.6-1.1a5.01 5.01 0 012.02-.4c.734 0 1.407.133 2.02.4.627.253 1.16.62 1.6 1.1.44.48.78 1.06 1.02 1.74.254.667.38 1.413.38 2.24zm-2.48 0c0-1.04-.226-1.86-.68-2.46-.44-.613-1.06-.92-1.86-.92s-1.426.307-1.88.92c-.44.6-.66 1.42-.66 2.46 0 1.053.22 1.887.66 2.5.454.613 1.08.92 1.88.92.8 0 1.42-.307 1.86-.92.454-.613.68-1.447.68-2.5zm4.973-4.88c.467-.133 1.074-.26 1.82-.38.747-.12 1.574-.18 2.48-.18.854 0 1.567.12 2.14.36.574.227 1.027.553 1.36.98.347.413.587.92.72 1.52a7.98 7.98 0 01.22 1.94V467h-2.42v-5.5c0-.56-.04-1.033-.12-1.42-.066-.4-.186-.72-.36-.96a1.308 1.308 0 00-.68-.54c-.28-.12-.626-.18-1.04-.18-.306 0-.626.02-.96.06-.333.04-.58.073-.74.1V467h-2.42v-10.12zM382.746 467h-2.42v-10.46h2.42V467zm.26-13.52c0 .453-.147.813-.44 1.08-.294.267-.64.4-1.04.4-.414 0-.767-.133-1.06-.4-.294-.267-.44-.627-.44-1.08 0-.467.146-.833.44-1.1.293-.267.646-.4 1.06-.4.4 0 .746.133 1.04.4.293.267.44.633.44 1.1zm2.827 3.4c.467-.133 1.073-.26 1.82-.38.747-.12 1.573-.18 2.48-.18.853 0 1.567.12 2.14.36.573.227 1.027.553 1.36.98.347.413.587.92.72 1.52a7.98 7.98 0 01.22 1.94V467h-2.42v-5.5c0-.56-.04-1.033-.12-1.42-.067-.4-.187-.72-.36-.96a1.312 1.312 0 00-.68-.54c-.28-.12-.627-.18-1.04-.18-.307 0-.627.02-.96.06-.333.04-.58.073-.74.1V467h-2.42v-10.12zm19.847 8.24c.907 0 1.567-.153 1.98-.46.413-.307.62-.74.62-1.3 0-.333-.073-.62-.22-.86a1.936 1.936 0 00-.6-.64 4.15 4.15 0 00-.94-.54c-.373-.173-.8-.34-1.28-.5a21.6 21.6 0 01-1.4-.56 5.165 5.165 0 01-1.18-.78 3.767 3.767 0 01-.82-1.1c-.2-.427-.3-.94-.3-1.54 0-1.253.433-2.233 1.3-2.94.867-.72 2.047-1.08 3.54-1.08.867 0 1.633.1 2.3.3.68.187 1.213.393 1.6.62l-.78 2.04a5.937 5.937 0 00-1.5-.58 6.835 6.835 0 00-1.66-.2c-.68 0-1.213.14-1.6.42-.373.28-.56.673-.56 1.18 0 .307.06.573.18.8.133.213.313.407.54.58.24.173.513.333.82.48.32.147.667.287 1.04.42.653.24 1.233.487 1.74.74.52.24.953.533 1.3.88.36.333.633.733.82 1.2.187.453.28 1.007.28 1.66 0 1.253-.447 2.227-1.34 2.92-.88.68-2.173 1.02-3.88 1.02-.573 0-1.1-.04-1.58-.12a9.473 9.473 0 01-1.26-.26c-.36-.107-.673-.213-.94-.32a7.113 7.113 0 01-.64-.32l.74-2.06c.36.2.847.4 1.46.6.613.2 1.353.3 2.22.3zm7.201-11.34l2.42-.4v3.16h3.72v2.02h-3.72v4.26c0 .84.133 1.44.4 1.8.267.36.72.54 1.36.54.44 0 .827-.047 1.16-.14.347-.093.62-.18.82-.26l.4 1.92c-.28.12-.647.24-1.1.36-.453.133-.987.2-1.6.2-.747 0-1.373-.1-1.88-.3-.493-.2-.887-.487-1.18-.86a3.543 3.543 0 01-.62-1.38 8.719 8.719 0 01-.18-1.86v-9.06zm17.019 2.76c-1.08 3.973-2.333 7.573-3.76 10.8-.266.6-.54 1.113-.82 1.54-.28.427-.593.78-.94 1.06-.346.28-.733.48-1.16.6-.426.133-.92.2-1.48.2-.373 0-.746-.04-1.12-.12-.36-.08-.633-.167-.82-.26l.44-1.94c.48.187.954.28 1.42.28.627 0 1.114-.153 1.46-.46.36-.293.674-.753.94-1.38a58.418 58.418 0 01-2.2-4.8 54.736 54.736 0 01-1.86-5.52h2.58c.134.56.294 1.167.48 1.82.2.653.414 1.32.64 2 .227.667.467 1.333.72 2 .254.667.507 1.287.76 1.86a54.803 54.803 0 001.2-3.78 128.92 128.92 0 001.02-3.9h2.5zm5.471 10.66c-.72-.013-1.32-.093-1.8-.24-.466-.147-.84-.353-1.12-.62-.28-.28-.48-.62-.6-1.02a5.643 5.643 0 01-.16-1.4v-12.04l2.42-.4v11.98c0 .293.02.54.06.74.054.2.14.373.26.52.12.133.28.24.48.32.214.067.48.12.8.16l-.34 2zm1.718-5.38c0-.92.133-1.727.4-2.42.28-.693.647-1.267 1.1-1.72a4.327 4.327 0 011.56-1.04 4.716 4.716 0 011.8-.36c1.44 0 2.56.447 3.36 1.34.813.893 1.22 2.227 1.22 4 0 .133-.007.287-.02.46 0 .16-.007.307-.02.44h-6.9c.067.84.36 1.493.88 1.96.533.453 1.3.68 2.3.68.587 0 1.12-.053 1.6-.16.493-.107.88-.22 1.16-.34l.32 1.98c-.133.067-.32.14-.56.22a7.151 7.151 0 01-.8.18 9.246 9.246 0 01-2.02.22c-.92 0-1.72-.133-2.4-.4-.68-.28-1.24-.66-1.68-1.14a4.777 4.777 0 01-.98-1.72 7.129 7.129 0 01-.32-2.18zm7.02-1.08c0-.333-.047-.647-.14-.94a2.076 2.076 0 00-.42-.78 1.681 1.681 0 00-.66-.52c-.253-.133-.56-.2-.92-.2-.373 0-.7.073-.98.22-.28.133-.52.313-.72.54a2.637 2.637 0 00-.44.78c-.107.293-.18.593-.22.9h4.5zm7.606 4.52c.64 0 1.106-.073 1.4-.22.293-.16.44-.427.44-.8 0-.347-.16-.633-.48-.86-.307-.227-.82-.473-1.54-.74a15.47 15.47 0 01-1.22-.5 4.47 4.47 0 01-.94-.64 2.736 2.736 0 01-.64-.86c-.147-.347-.22-.767-.22-1.26 0-.96.353-1.713 1.06-2.26.706-.56 1.666-.84 2.88-.84.613 0 1.2.06 1.76.18.56.107.98.213 1.26.32l-.44 1.96a5.45 5.45 0 00-1.02-.32 5.787 5.787 0 00-1.44-.16c-.494 0-.894.087-1.2.26a.8.8 0 00-.46.76c0 .173.026.327.08.46.066.133.173.26.32.38.146.107.34.22.58.34.24.107.533.22.88.34.573.213 1.06.427 1.46.64.4.2.726.433.98.7.266.253.46.547.58.88.12.333.18.733.18 1.2 0 1-.374 1.76-1.12 2.28-.734.507-1.787.76-3.16.76-.92 0-1.66-.08-2.22-.24-.56-.147-.954-.267-1.18-.36l.42-2.02c.36.147.786.287 1.28.42.506.133 1.08.2 1.72.2zm6.52 1.74v-15.12l2.42-.4v5.18a6.67 6.67 0 01.92-.24c.36-.067.714-.1 1.06-.1.84 0 1.534.12 2.08.36.56.227 1.007.553 1.34.98.334.413.567.913.7 1.5.147.587.22 1.24.22 1.96V467h-2.42v-5.5c0-.56-.04-1.033-.12-1.42-.066-.4-.186-.72-.36-.96a1.318 1.318 0 00-.66-.54c-.28-.12-.626-.18-1.04-.18-.32 0-.646.033-.98.1a6.89 6.89 0 00-.74.18V467h-2.42zm11.061-5.18c0-.92.133-1.727.4-2.42.28-.693.647-1.267 1.1-1.72a4.327 4.327 0 011.56-1.04 4.716 4.716 0 011.8-.36c1.44 0 2.56.447 3.36 1.34.813.893 1.22 2.227 1.22 4 0 .133-.007.287-.02.46 0 .16-.007.307-.02.44h-6.9c.067.84.36 1.493.88 1.96.533.453 1.3.68 2.3.68.587 0 1.12-.053 1.6-.16.493-.107.88-.22 1.16-.34l.32 1.98c-.133.067-.32.14-.56.22a7.151 7.151 0 01-.8.18 9.246 9.246 0 01-2.02.22c-.92 0-1.72-.133-2.4-.4-.68-.28-1.24-.66-1.68-1.14a4.777 4.777 0 01-.98-1.72 7.129 7.129 0 01-.32-2.18zm7.02-1.08c0-.333-.047-.647-.14-.94a2.076 2.076 0 00-.42-.78 1.681 1.681 0 00-.66-.52c-.253-.133-.56-.2-.92-.2-.373 0-.7.073-.98.22-.28.133-.52.313-.72.54a2.637 2.637 0 00-.44.78c-.107.293-.18.593-.22.9h4.5zm4.406 1.08c0-.92.133-1.727.4-2.42.28-.693.646-1.267 1.1-1.72a4.327 4.327 0 011.56-1.04 4.709 4.709 0 011.8-.36c1.44 0 2.56.447 3.36 1.34.813.893 1.22 2.227 1.22 4 0 .133-.007.287-.02.46 0 .16-.007.307-.02.44h-6.9c.066.84.36 1.493.88 1.96.533.453 1.3.68 2.3.68.586 0 1.12-.053 1.6-.16.493-.107.88-.22 1.16-.34l.32 1.98c-.134.067-.32.14-.56.22a7.203 7.203 0 01-.8.18 9.246 9.246 0 01-2.02.22c-.92 0-1.72-.133-2.4-.4-.68-.28-1.24-.66-1.68-1.14a4.777 4.777 0 01-.98-1.72 7.099 7.099 0 01-.32-2.18zm7.02-1.08c0-.333-.047-.647-.14-.94a2.105 2.105 0 00-.42-.78 1.696 1.696 0 00-.66-.52c-.254-.133-.56-.2-.92-.2-.374 0-.7.073-.98.22-.28.133-.52.313-.72.54a2.615 2.615 0 00-.44.78c-.107.293-.18.593-.22.9h4.5zm4.866-6.96l2.42-.4v3.16h3.72v2.02h-3.72v4.26c0 .84.133 1.44.4 1.8.266.36.72.54 1.36.54.44 0 .826-.047 1.16-.14.346-.093.62-.18.82-.26l.4 1.92c-.28.12-.647.24-1.1.36-.454.133-.987.2-1.601.2-.746 0-1.373-.1-1.879-.3a2.798 2.798 0 01-1.18-.86 3.529 3.529 0 01-.62-1.38 8.719 8.719 0 01-.18-1.86v-9.06z" fill="#12355B"/><path d="M304.42 464.82V467h-8.76v-13.86h2.52v11.68h6.24zm11.068-3.06c0 .827-.12 1.58-.36 2.26-.24.68-.58 1.26-1.02 1.74-.44.48-.973.853-1.6 1.12-.613.267-1.293.4-2.04.4-.746 0-1.426-.133-2.04-.4a4.617 4.617 0 01-1.58-1.12 5.268 5.268 0 01-1.04-1.74c-.24-.68-.36-1.433-.36-2.26 0-.827.12-1.573.36-2.24.254-.68.6-1.26 1.04-1.74.454-.48.987-.847 1.6-1.1a5.01 5.01 0 012.02-.4c.734 0 1.407.133 2.02.4.627.253 1.16.62 1.6 1.1.44.48.78 1.06 1.02 1.74.254.667.38 1.413.38 2.24zm-2.48 0c0-1.04-.226-1.86-.68-2.46-.44-.613-1.06-.92-1.86-.92s-1.426.307-1.88.92c-.44.6-.66 1.42-.66 2.46 0 1.053.22 1.887.66 2.5.454.613 1.08.92 1.88.92.8 0 1.42-.307 1.86-.92.454-.613.68-1.447.68-2.5zm4.393.02c0-.773.12-1.493.36-2.16.24-.68.58-1.267 1.02-1.76.454-.493 1-.88 1.64-1.16.64-.28 1.36-.42 2.16-.42.987 0 1.92.18 2.8.54l-.52 1.98c-.28-.12-.6-.22-.96-.3a4.97 4.97 0 00-1.12-.12c-.946 0-1.666.3-2.16.9-.493.587-.74 1.42-.74 2.5 0 1.04.234 1.867.7 2.48.467.6 1.254.9 2.36.9a6.2 6.2 0 001.22-.12c.4-.08.747-.18 1.04-.3l.34 2c-.266.133-.673.253-1.22.36a8.413 8.413 0 01-1.66.16c-.893 0-1.673-.133-2.34-.4-.653-.28-1.2-.66-1.64-1.14a4.93 4.93 0 01-.96-1.74 7.322 7.322 0 01-.32-2.2zm13.694 3.52c.747 0 1.313-.04 1.7-.12v-2.68a5.401 5.401 0 00-1.42-.18c-.267 0-.54.02-.82.06a2.64 2.64 0 00-.74.22c-.213.107-.387.26-.52.46-.133.187-.2.427-.2.72 0 .573.18.973.54 1.2.36.213.847.32 1.46.32zm-.2-9.02c.8 0 1.473.1 2.02.3.547.2.98.48 1.3.84.333.36.567.8.7 1.32a6.02 6.02 0 01.22 1.68v6.34c-.373.08-.94.173-1.7.28-.747.12-1.593.18-2.54.18-.627 0-1.2-.06-1.72-.18a3.707 3.707 0 01-1.34-.58 2.86 2.86 0 01-.86-1.04c-.2-.427-.3-.953-.3-1.58 0-.6.113-1.107.34-1.52.24-.413.56-.747.96-1 .4-.267.86-.453 1.38-.56a7.54 7.54 0 011.66-.18c.267 0 .547.02.84.06.293.027.607.08.94.16v-.4c0-.28-.033-.547-.1-.8a1.535 1.535 0 00-.36-.66c-.16-.2-.38-.353-.66-.46-.267-.107-.607-.16-1.02-.16-.56 0-1.073.04-1.54.12-.467.08-.847.173-1.14.28l-.3-1.96c.307-.107.753-.213 1.34-.32.587-.107 1.213-.16 1.88-.16zm7.084-2.5l2.42-.4v3.16h3.72v2.02h-3.72v4.26c0 .84.133 1.44.4 1.8.266.36.72.54 1.36.54.44 0 .826-.047 1.16-.14.346-.093.62-.18.82-.26l.4 1.92c-.28.12-.647.24-1.1.36-.454.133-.987.2-1.6.2-.747 0-1.374-.1-1.88-.3a2.798 2.798 0 01-1.18-.86 3.529 3.529 0 01-.62-1.38 8.719 8.719 0 01-.18-1.86v-9.06zM348.898 467h-2.42v-10.46h2.42V467zm.26-13.52c0 .453-.147.813-.44 1.08-.293.267-.64.4-1.04.4-.413 0-.767-.133-1.06-.4-.293-.267-.44-.627-.44-1.08 0-.467.147-.833.44-1.1.293-.267.647-.4 1.06-.4.4 0 .747.133 1.04.4.293.267.44.633.44 1.1zm12.287 8.28c0 .827-.12 1.58-.36 2.26-.24.68-.58 1.26-1.02 1.74-.44.48-.973.853-1.6 1.12-.613.267-1.293.4-2.04.4-.746 0-1.426-.133-2.04-.4a4.617 4.617 0 01-1.58-1.12 5.268 5.268 0 01-1.04-1.74c-.24-.68-.36-1.433-.36-2.26 0-.827.12-1.573.36-2.24.254-.68.6-1.26 1.04-1.74.454-.48.987-.847 1.6-1.1a5.01 5.01 0 012.02-.4c.734 0 1.407.133 2.02.4.627.253 1.16.62 1.6 1.1.44.48.78 1.06 1.02 1.74.254.667.38 1.413.38 2.24zm-2.48 0c0-1.04-.226-1.86-.68-2.46-.44-.613-1.06-.92-1.86-.92s-1.426.307-1.88.92c-.44.6-.66 1.42-.66 2.46 0 1.053.22 1.887.66 2.5.454.613 1.08.92 1.88.92.8 0 1.42-.307 1.86-.92.454-.613.68-1.447.68-2.5zm4.973-4.88c.467-.133 1.074-.26 1.82-.38.747-.12 1.574-.18 2.48-.18.854 0 1.567.12 2.14.36.574.227 1.027.553 1.36.98.347.413.587.92.72 1.52a7.98 7.98 0 01.22 1.94V467h-2.42v-5.5c0-.56-.04-1.033-.12-1.42-.066-.4-.186-.72-.36-.96a1.308 1.308 0 00-.68-.54c-.28-.12-.626-.18-1.04-.18-.306 0-.626.02-.96.06-.333.04-.58.073-.74.1V467h-2.42v-10.12zM382.746 467h-2.42v-10.46h2.42V467zm.26-13.52c0 .453-.147.813-.44 1.08-.294.267-.64.4-1.04.4-.414 0-.767-.133-1.06-.4-.294-.267-.44-.627-.44-1.08 0-.467.146-.833.44-1.1.293-.267.646-.4 1.06-.4.4 0 .746.133 1.04.4.293.267.44.633.44 1.1zm2.827 3.4c.467-.133 1.073-.26 1.82-.38.747-.12 1.573-.18 2.48-.18.853 0 1.567.12 2.14.36.573.227 1.027.553 1.36.98.347.413.587.92.72 1.52a7.98 7.98 0 01.22 1.94V467h-2.42v-5.5c0-.56-.04-1.033-.12-1.42-.067-.4-.187-.72-.36-.96a1.312 1.312 0 00-.68-.54c-.28-.12-.627-.18-1.04-.18-.307 0-.627.02-.96.06-.333.04-.58.073-.74.1V467h-2.42v-10.12zm19.847 8.24c.907 0 1.567-.153 1.98-.46.413-.307.62-.74.62-1.3 0-.333-.073-.62-.22-.86a1.936 1.936 0 00-.6-.64 4.15 4.15 0 00-.94-.54c-.373-.173-.8-.34-1.28-.5a21.6 21.6 0 01-1.4-.56 5.165 5.165 0 01-1.18-.78 3.767 3.767 0 01-.82-1.1c-.2-.427-.3-.94-.3-1.54 0-1.253.433-2.233 1.3-2.94.867-.72 2.047-1.08 3.54-1.08.867 0 1.633.1 2.3.3.68.187 1.213.393 1.6.62l-.78 2.04a5.937 5.937 0 00-1.5-.58 6.835 6.835 0 00-1.66-.2c-.68 0-1.213.14-1.6.42-.373.28-.56.673-.56 1.18 0 .307.06.573.18.8.133.213.313.407.54.58.24.173.513.333.82.48.32.147.667.287 1.04.42.653.24 1.233.487 1.74.74.52.24.953.533 1.3.88.36.333.633.733.82 1.2.187.453.28 1.007.28 1.66 0 1.253-.447 2.227-1.34 2.92-.88.68-2.173 1.02-3.88 1.02-.573 0-1.1-.04-1.58-.12a9.473 9.473 0 01-1.26-.26c-.36-.107-.673-.213-.94-.32a7.113 7.113 0 01-.64-.32l.74-2.06c.36.2.847.4 1.46.6.613.2 1.353.3 2.22.3zm7.201-11.34l2.42-.4v3.16h3.72v2.02h-3.72v4.26c0 .84.133 1.44.4 1.8.267.36.72.54 1.36.54.44 0 .827-.047 1.16-.14.347-.093.62-.18.82-.26l.4 1.92c-.28.12-.647.24-1.1.36-.453.133-.987.2-1.6.2-.747 0-1.373-.1-1.88-.3-.493-.2-.887-.487-1.18-.86a3.543 3.543 0 01-.62-1.38 8.719 8.719 0 01-.18-1.86v-9.06zm17.019 2.76c-1.08 3.973-2.333 7.573-3.76 10.8-.266.6-.54 1.113-.82 1.54-.28.427-.593.78-.94 1.06-.346.28-.733.48-1.16.6-.426.133-.92.2-1.48.2-.373 0-.746-.04-1.12-.12-.36-.08-.633-.167-.82-.26l.44-1.94c.48.187.954.28 1.42.28.627 0 1.114-.153 1.46-.46.36-.293.674-.753.94-1.38a58.418 58.418 0 01-2.2-4.8 54.736 54.736 0 01-1.86-5.52h2.58c.134.56.294 1.167.48 1.82.2.653.414 1.32.64 2 .227.667.467 1.333.72 2 .254.667.507 1.287.76 1.86a54.803 54.803 0 001.2-3.78 128.92 128.92 0 001.02-3.9h2.5zm5.471 10.66c-.72-.013-1.32-.093-1.8-.24-.466-.147-.84-.353-1.12-.62-.28-.28-.48-.62-.6-1.02a5.643 5.643 0 01-.16-1.4v-12.04l2.42-.4v11.98c0 .293.02.54.06.74.054.2.14.373.26.52.12.133.28.24.48.32.214.067.48.12.8.16l-.34 2zm1.718-5.38c0-.92.133-1.727.4-2.42.28-.693.647-1.267 1.1-1.72a4.327 4.327 0 011.56-1.04 4.716 4.716 0 011.8-.36c1.44 0 2.56.447 3.36 1.34.813.893 1.22 2.227 1.22 4 0 .133-.007.287-.02.46 0 .16-.007.307-.02.44h-6.9c.067.84.36 1.493.88 1.96.533.453 1.3.68 2.3.68.587 0 1.12-.053 1.6-.16.493-.107.88-.22 1.16-.34l.32 1.98c-.133.067-.32.14-.56.22a7.151 7.151 0 01-.8.18 9.246 9.246 0 01-2.02.22c-.92 0-1.72-.133-2.4-.4-.68-.28-1.24-.66-1.68-1.14a4.777 4.777 0 01-.98-1.72 7.129 7.129 0 01-.32-2.18zm7.02-1.08c0-.333-.047-.647-.14-.94a2.076 2.076 0 00-.42-.78 1.681 1.681 0 00-.66-.52c-.253-.133-.56-.2-.92-.2-.373 0-.7.073-.98.22-.28.133-.52.313-.72.54a2.637 2.637 0 00-.44.78c-.107.293-.18.593-.22.9h4.5zm7.606 4.52c.64 0 1.106-.073 1.4-.22.293-.16.44-.427.44-.8 0-.347-.16-.633-.48-.86-.307-.227-.82-.473-1.54-.74a15.47 15.47 0 01-1.22-.5 4.47 4.47 0 01-.94-.64 2.736 2.736 0 01-.64-.86c-.147-.347-.22-.767-.22-1.26 0-.96.353-1.713 1.06-2.26.706-.56 1.666-.84 2.88-.84.613 0 1.2.06 1.76.18.56.107.98.213 1.26.32l-.44 1.96a5.45 5.45 0 00-1.02-.32 5.787 5.787 0 00-1.44-.16c-.494 0-.894.087-1.2.26a.8.8 0 00-.46.76c0 .173.026.327.08.46.066.133.173.26.32.38.146.107.34.22.58.34.24.107.533.22.88.34.573.213 1.06.427 1.46.64.4.2.726.433.98.7.266.253.46.547.58.88.12.333.18.733.18 1.2 0 1-.374 1.76-1.12 2.28-.734.507-1.787.76-3.16.76-.92 0-1.66-.08-2.22-.24-.56-.147-.954-.267-1.18-.36l.42-2.02c.36.147.786.287 1.28.42.506.133 1.08.2 1.72.2zm6.52 1.74v-15.12l2.42-.4v5.18a6.67 6.67 0 01.92-.24c.36-.067.714-.1 1.06-.1.84 0 1.534.12 2.08.36.56.227 1.007.553 1.34.98.334.413.567.913.7 1.5.147.587.22 1.24.22 1.96V467h-2.42v-5.5c0-.56-.04-1.033-.12-1.42-.066-.4-.186-.72-.36-.96a1.318 1.318 0 00-.66-.54c-.28-.12-.626-.18-1.04-.18-.32 0-.646.033-.98.1a6.89 6.89 0 00-.74.18V467h-2.42zm11.061-5.18c0-.92.133-1.727.4-2.42.28-.693.647-1.267 1.1-1.72a4.327 4.327 0 011.56-1.04 4.716 4.716 0 011.8-.36c1.44 0 2.56.447 3.36 1.34.813.893 1.22 2.227 1.22 4 0 .133-.007.287-.02.46 0 .16-.007.307-.02.44h-6.9c.067.84.36 1.493.88 1.96.533.453 1.3.68 2.3.68.587 0 1.12-.053 1.6-.16.493-.107.88-.22 1.16-.34l.32 1.98c-.133.067-.32.14-.56.22a7.151 7.151 0 01-.8.18 9.246 9.246 0 01-2.02.22c-.92 0-1.72-.133-2.4-.4-.68-.28-1.24-.66-1.68-1.14a4.777 4.777 0 01-.98-1.72 7.129 7.129 0 01-.32-2.18zm7.02-1.08c0-.333-.047-.647-.14-.94a2.076 2.076 0 00-.42-.78 1.681 1.681 0 00-.66-.52c-.253-.133-.56-.2-.92-.2-.373 0-.7.073-.98.22-.28.133-.52.313-.72.54a2.637 2.637 0 00-.44.78c-.107.293-.18.593-.22.9h4.5zm4.406 1.08c0-.92.133-1.727.4-2.42.28-.693.646-1.267 1.1-1.72a4.327 4.327 0 011.56-1.04 4.709 4.709 0 011.8-.36c1.44 0 2.56.447 3.36 1.34.813.893 1.22 2.227 1.22 4 0 .133-.007.287-.02.46 0 .16-.007.307-.02.44h-6.9c.066.84.36 1.493.88 1.96.533.453 1.3.68 2.3.68.586 0 1.12-.053 1.6-.16.493-.107.88-.22 1.16-.34l.32 1.98c-.134.067-.32.14-.56.22a7.203 7.203 0 01-.8.18 9.246 9.246 0 01-2.02.22c-.92 0-1.72-.133-2.4-.4-.68-.28-1.24-.66-1.68-1.14a4.777 4.777 0 01-.98-1.72 7.099 7.099 0 01-.32-2.18zm7.02-1.08c0-.333-.047-.647-.14-.94a2.105 2.105 0 00-.42-.78 1.696 1.696 0 00-.66-.52c-.254-.133-.56-.2-.92-.2-.374 0-.7.073-.98.22-.28.133-.52.313-.72.54a2.615 2.615 0 00-.44.78c-.107.293-.18.593-.22.9h4.5zm4.866-6.96l2.42-.4v3.16h3.72v2.02h-3.72v4.26c0 .84.133 1.44.4 1.8.266.36.72.54 1.36.54.44 0 .826-.047 1.16-.14.346-.093.62-.18.82-.26l.4 1.92c-.28.12-.647.24-1.1.36-.454.133-.987.2-1.601.2-.746 0-1.373-.1-1.879-.3a2.798 2.798 0 01-1.18-.86 3.529 3.529 0 01-.62-1.38 8.719 8.719 0 01-.18-1.86v-9.06zM18.1 265.539c0-.907-.153-1.567-.46-1.98-.306-.414-.74-.62-1.3-.62-.333 0-.62.073-.86.22-.24.133-.453.333-.64.6-.2.253-.38.566-.54.94-.173.373-.34.8-.5 1.28-.173.48-.36.946-.56 1.4-.213.44-.473.833-.78 1.18a3.786 3.786 0 01-1.1.82c-.426.2-.94.3-1.54.3-1.253 0-2.233-.434-2.94-1.3-.72-.867-1.08-2.047-1.08-3.54 0-.867.1-1.634.3-2.3.187-.68.394-1.214.62-1.6l2.04.78a5.937 5.937 0 00-.58 1.5 6.813 6.813 0 00-.2 1.66c0 .68.14 1.213.42 1.6.28.373.674.56 1.18.56.307 0 .574-.06.8-.18a2.23 2.23 0 00.58-.54 5.35 5.35 0 00.48-.82c.147-.32.287-.667.42-1.04.24-.654.487-1.234.74-1.74.24-.52.534-.954.88-1.3.334-.36.734-.634 1.2-.82.454-.187 1.007-.28 1.66-.28 1.254 0 2.227.446 2.92 1.34.68.88 1.02 2.173 1.02 3.88 0 .573-.04 1.1-.12 1.58a9.556 9.556 0 01-.26 1.26c-.106.36-.213.673-.32.94-.12.266-.226.48-.32.64l-2.06-.74c.2-.36.4-.847.6-1.46.2-.614.3-1.354.3-2.22zm-3.3-14.261c-1.08 0-1.92.246-2.52.74-.6.48-.9 1.26-.9 2.34 0 .226.014.466.04.72.014.24.054.48.12.72h5.98a4.13 4.13 0 00.42-.84c.12-.36.18-.74.18-1.14 0-.88-.3-1.52-.9-1.92-.6-.414-1.406-.62-2.42-.62zm-.04-2.48c.8 0 1.534.106 2.2.32.667.2 1.24.493 1.72.88.48.386.854.873 1.12 1.46.267.573.4 1.226.4 1.96 0 .493-.06.946-.18 1.36-.12.413-.253.753-.4 1.02h4.06v2.42H9.86c-.133-.494-.26-1.1-.38-1.82s-.18-1.48-.18-2.28c0-.827.127-1.567.38-2.22a4.462 4.462 0 011.1-1.66 4.513 4.513 0 011.72-1.06c.667-.254 1.42-.38 2.26-.38zm.04-1.914c-.92 0-1.726-.134-2.42-.4-.693-.28-1.266-.647-1.72-1.1a4.344 4.344 0 01-1.04-1.56 4.716 4.716 0 01-.36-1.8c0-1.44.447-2.56 1.34-3.36.894-.814 2.227-1.22 4-1.22.134 0 .287.006.46.02.16 0 .307.006.44.02v6.9c.84-.067 1.494-.36 1.96-.88.454-.534.68-1.3.68-2.3 0-.587-.053-1.12-.16-1.6-.106-.494-.22-.88-.34-1.16l1.98-.32c.067.133.14.32.22.56.067.226.127.493.18.8a9.233 9.233 0 01.22 2.02c0 .92-.133 1.72-.4 2.4-.28.68-.66 1.24-1.14 1.68a4.792 4.792 0 01-1.72.98 7.13 7.13 0 01-2.18.32zm-1.08-7.02c-.333 0-.646.046-.94.14a2.08 2.08 0 00-.78.42c-.226.173-.4.393-.52.66-.133.253-.2.56-.2.92 0 .373.074.7.22.98.134.28.314.52.54.72.227.186.487.333.78.44.294.106.594.18.9.22v-4.5zm1.04-4.406a6.33 6.33 0 01-2.16-.36 5.22 5.22 0 01-1.76-1.02c-.493-.453-.88-1-1.16-1.64-.28-.64-.42-1.36-.42-2.16 0-.987.18-1.92.54-2.8l1.98.52c-.12.28-.22.6-.3.96-.08.347-.12.72-.12 1.12 0 .947.3 1.667.9 2.16.587.493 1.42.74 2.5.74 1.04 0 1.867-.233 2.48-.7.6-.467.9-1.253.9-2.36 0-.413-.04-.82-.12-1.22-.08-.4-.18-.747-.3-1.04l2-.34c.134.267.254.673.36 1.22.107.533.16 1.087.16 1.66 0 .893-.133 1.673-.4 2.34-.28.653-.66 1.2-1.14 1.64a4.906 4.906 0 01-1.74.96c-.68.213-1.413.32-2.2.32zm5.22-12.454v2.42H9.52v-2.42h10.46zm-13.52-.26c.454 0 .814.147 1.08.44.267.294.4.64.4 1.04 0 .414-.133.767-.4 1.06-.266.294-.626.44-1.08.44-.466 0-.833-.146-1.1-.44a1.519 1.519 0 01-.4-1.06c0-.4.134-.746.4-1.04.267-.293.634-.44 1.1-.44zm13.52-13.327v2.42H9.52v-2.42h10.46zm-13.52-.28c.454 0 .814.147 1.08.44.267.293.4.64.4 1.04 0 .413-.133.767-.4 1.06-.266.293-.626.44-1.08.44-.466 0-.833-.147-1.1-.44a1.52 1.52 0 01-.4-1.06c0-.4.134-.747.4-1.04.267-.293.634-.44 1.1-.44zm-2 6.48c0-.507.04-.933.12-1.28.08-.36.16-.64.24-.84l1.96.38a4.919 4.919 0 00-.18.68 4.08 4.08 0 00-.08.84c0 .8.214 1.353.64 1.66.427.293.98.44 1.66.44h.7v-3.84h2.02v3.84h8.44v2.42H8.78c-1.36 0-2.42-.353-3.18-1.06-.76-.707-1.14-1.787-1.14-3.24zm10.3-8.714a6.33 6.33 0 01-2.16-.36 5.22 5.22 0 01-1.76-1.02c-.493-.453-.88-1-1.16-1.64-.28-.64-.42-1.36-.42-2.16 0-.986.18-1.92.54-2.8l1.98.52c-.12.28-.22.6-.3.96-.08.347-.12.72-.12 1.12 0 .947.3 1.667.9 2.16.587.494 1.42.74 2.5.74 1.04 0 1.867-.233 2.48-.7.6-.466.9-1.253.9-2.36 0-.413-.04-.82-.12-1.22a5.75 5.75 0 00-.3-1.04l2-.34c.134.267.254.674.36 1.22.107.534.16 1.087.16 1.66 0 .894-.133 1.674-.4 2.34-.28.654-.66 1.2-1.14 1.64a4.906 4.906 0 01-1.74.96c-.68.214-1.413.32-2.2.32zm5.22-12.453v2.42H9.52v-2.42h10.46zm-13.52-.26c.454 0 .814.146 1.08.44.267.293.4.64.4 1.04 0 .413-.133.766-.4 1.06-.266.293-.626.44-1.08.44-.466 0-.833-.147-1.1-.44a1.522 1.522 0 01-.4-1.06c0-.4.134-.747.4-1.04.267-.294.634-.44 1.1-.44zm.3-2.708l-.4-2.42h3.16v-3.72h2.02v3.72h4.26c.84 0 1.44-.133 1.8-.4.36-.266.54-.72.54-1.36 0-.44-.046-.826-.14-1.16a7.75 7.75 0 00-.26-.82l1.92-.4c.12.28.24.647.36 1.1.134.454.2.987.2 1.6 0 .747-.1 1.374-.3 1.88-.2.494-.486.887-.86 1.18-.386.294-.846.5-1.38.62-.546.12-1.166.18-1.86.18H6.76zm2.76-17.019c3.974 1.08 7.574 2.333 10.8 3.76.6.267 1.114.54 1.54.82.427.28.78.593 1.06.94s.48.733.6 1.16c.134.427.2.92.2 1.48 0 .373-.04.747-.12 1.12-.08.36-.166.633-.26.82l-1.94-.44c.187-.48.28-.953.28-1.42 0-.627-.153-1.113-.46-1.46-.293-.36-.753-.673-1.38-.94a58.326 58.326 0 01-4.8 2.2 54.802 54.802 0 01-5.52 1.86v-2.58c.56-.133 1.167-.293 1.82-.48.654-.2 1.32-.413 2-.64a61.657 61.657 0 002-.72 38.141 38.141 0 001.86-.76 54.7 54.7 0 00-3.78-1.2 134.61 134.61 0 00-3.9-1.02v-2.5z" fill="#12355B"/><path d="M63.934 399.551l22.015-7.031 47.641-6.309 50.472-5.418h36.426l39.805-5.855 47.871-9h40.774l39.566-10.969 67.062-6.254 56.286-15.539 43.269-11.867 32.438-5.684h47.433l26.676-8.16 24.789-12.481 24.301-112.386" stroke="#EE4266" stroke-width="6"/><defs><clipPath id="clip0"><path fill="#fff" transform="rotate(-90 127.5 39.5)" d="M0 0h119v603H0z"/></clipPath></defs></svg>
